<svg id="Layer_1" data-name="Layer 1" xmlns="http://www.w3.org/2000/svg" viewBox="0 0 83.6 78.57"><title>comics_icon</title><path d="M91.4,18.9a.78.78,0,0,0-.8-.2l-.8.2V15.2a.91.91,0,0,0-.4-.8,1,1,0,0,0-.9-.1l-1.5.5V11.7a1,1,0,0,0-.5-.8,1.18,1.18,0,0,0-1-.1L50.7,27.5l-.7.2-.4-.1-35-16.8a1.18,1.18,0,0,0-1,.1.89.89,0,0,0-.5.8V15l-1.6-.6a1,1,0,0,0-.9.1,1.23,1.23,0,0,0-.4.8v3.5l-.8-.2a.78.78,0,0,0-.8.2.91.91,0,0,0-.4.8V79A1,1,0,0,0,9,80l40.8,9.3h.4L91,80.1a1,1,0,0,0,.8-1V19.7A1.23,1.23,0,0,0,91.4,18.9Zm-3.6.4L66.2,24.2l19.7-6.9H86a1.14,1.14,0,0,0,.8-.3l1-.4Zm-2.8-6v2.2L67.7,21.6Zm-69.9,0L33.2,22,15.1,15.6Zm-2.9,3.4,1.5.5h.1l18.9,6.6L12.3,19.2V16.7Zm-2,4.2L49,29.7V87.1L10.2,78.3ZM89.8,78.3,51,87.1V29.7l38.8-8.8Z" transform="translate(-8.2 -10.73)"/><path d="M56.4,44.5h.2L85.1,38a1,1,0,0,0,.8-1V29.8a1.23,1.23,0,0,0-.4-.8.78.78,0,0,0-.8-.2L56.2,35.3a1,1,0,0,0-.8,1v7.2a1.23,1.23,0,0,0,.4.8A1.42,1.42,0,0,0,56.4,44.5Zm1-7.4L83.9,31v5.1L57.4,42.2Z" transform="translate(-8.2 -10.73)"/><path d="M39.7,41.4,16,36a1.08,1.08,0,0,0-.8.2.91.91,0,0,0-.4.8V73.5a1,1,0,0,0,.8,1l23.7,5.4h.2a1.42,1.42,0,0,0,.6-.2.91.91,0,0,0,.4-.8V42.4A1,1,0,0,0,39.7,41.4ZM38.4,77.7,16.7,72.8V38.3l21.7,4.9Z" transform="translate(-8.2 -10.73)"/><path d="M82.6,59.6l1.9-3.5a1.39,1.39,0,0,0,0-.9,1.34,1.34,0,0,0-.7-.6l-3-.8.1-3.4a.91.91,0,0,0-.4-.8,1,1,0,0,0-.9-.2l-3.4,1-1.6-2.6a.75.75,0,0,0-.7-.5.78.78,0,0,0-.8.2l-3,2.7-3-1.2a1,1,0,0,0-1.3.5l-1.7,3.7-3.7.7a1,1,0,0,0-.8,1l.2,3.6L56.5,61a1,1,0,0,0-.4.7,1,1,0,0,0,.2.7l1.9,2.4-1.9,3.5a1.39,1.39,0,0,0,0,.9,1.34,1.34,0,0,0,.7.6l3,.8L59.9,74a.91.91,0,0,0,.4.8,1,1,0,0,0,.9.2l3.4-1,1.6,2.6a.75.75,0,0,0,.7.5H67a.75.75,0,0,0,.7-.4l3-2.7,3,1.2a1,1,0,0,0,1.3-.5l1.7-3.5,3.7-.7a1,1,0,0,0,.8-1L81,65.9l3.3-2.5a1,1,0,0,0,.4-.7,1,1,0,0,0-.2-.7Zm-3.3,4.7a1.09,1.09,0,0,0-.4.9l.2,3.2-3.3.7a1.06,1.06,0,0,0-.7.6L73.6,73l-2.7-1a1,1,0,0,0-1,.2l-2.6,2.3L66,72.3a1.19,1.19,0,0,0-.9-.5.37.37,0,0,0-.3.1l-2.8.8V69.9a.9.9,0,0,0-.7-1l-2.5-.7,1.6-2.9a1.07,1.07,0,0,0-.1-1.1L58.6,62l2.9-2.2a1.09,1.09,0,0,0,.4-.9l-.2-3.2L65,55a.79.79,0,0,0,.7-.5l1.5-3.3,2.7,1a1.23,1.23,0,0,0,1-.2l2.7-2.3,1.3,2.2a1.11,1.11,0,0,0,1.1.4l2.9-.8-.1,2.8a.9.9,0,0,0,.7,1L82,56l-1.6,2.8a1.07,1.07,0,0,0,.1,1.1l1.7,2.2Z" transform="translate(-8.2 -10.73)"/><path d="M15.5,33,27,35.6h.2a.88.88,0,0,0,.9-.8,1.1,1.1,0,0,0-.8-1.2L15.9,31a1,1,0,0,0-.4,2Z" transform="translate(-8.2 -10.73)"/></svg>