<svg id="Layer_1" data-name="Layer 1" xmlns="http://www.w3.org/2000/svg" viewBox="0 0 264.06 110.58"><defs><style>.cls-1{fill:#fff;}</style></defs><title>logo_menu</title><path class="cls-1" d="M144,37.39H130.57V51.18h-8.34V16.57h23.15V23H130.57v8H144Z" transform="translate(0.01 0)"/><path class="cls-1" d="M164,44.72H152.51l-2,6.46H141.6l12.7-34.61h7.84l12.79,34.61h-9Zm-9.49-6.43H162l-3.73-12Z" transform="translate(0.01 0)"/><path class="cls-1" d="M177.45,51.18V16.57h12.43c4.46,0,7.84.82,10.17,2.45a9,9,0,0,1,2.24,11.69,7.25,7.25,0,0,1-3.64,2.81,7.19,7.19,0,0,1,4.16,2.66,7.7,7.7,0,0,1,1.46,4.75c0,3.4-1.08,5.94-3.23,7.65s-5.33,2.57-9.54,2.6ZM185.79,31h4.35a6.19,6.19,0,0,0,3.9-1,3.59,3.59,0,0,0,1.17-2.89A3.76,3.76,0,0,0,194,24a6.85,6.85,0,0,0-4.07-1h-4.09Zm0,5.47v8.29h5.47a5.19,5.19,0,0,0,3.47-1A3.61,3.61,0,0,0,196,40.82q0-4.34-4.31-4.35Z" transform="translate(0.01 0)"/><path class="cls-1" d="M230.32,36.49H217.19v8.27h15.5v6.42H208.85V16.57h23.89V23H217.19v7.28h13.13Z" transform="translate(0.01 0)"/><path class="cls-1" d="M249,38.94h-4.51V51.18h-8.35V16.57h13.62q6.17,0,9.63,2.73A9.23,9.23,0,0,1,262.86,27a11.25,11.25,0,0,1-1.46,6,10.29,10.29,0,0,1-4.58,3.85l7.23,14v.36h-8.94Zm-4.51-6.42h5.27a4.72,4.72,0,0,0,3.53-1.23,4.8,4.8,0,0,0,1.2-3.49,4.91,4.91,0,0,0-1.21-3.51A4.66,4.66,0,0,0,249.71,23h-5.27Z" transform="translate(0.01 0)"/><path class="cls-1" d="M144.2,93.6h-2.5V79.51H124.9V93.6h-2.48V64.2h2.48V77.41h16.8V64.2h2.5Z" transform="translate(0.01 0)"/><path class="cls-1" d="M166.25,79.51H152.5v12h15.81v2.1H150V64.21h18.19v2.08H152.5v11.1h13.75Z" transform="translate(0.01 0)"/><path class="cls-1" d="M182.87,81.35h-8.54V93.6h-2.51V64.2h9.55q4.71,0,7.35,2.28a8.68,8.68,0,0,1,1,11.36,8.38,8.38,0,0,1-4.44,3l7.35,12.52v.26H190Zm-8.54-2.06h7.61a7.06,7.06,0,0,0,5-1.77,6.72,6.72,0,0,0-.08-9.45,8.17,8.17,0,0,0-5.55-1.71h-7Z" transform="translate(0.01 0)"/><path class="cls-1" d="M218.2,80.5a17,17,0,0,1-1.4,7.12,10.77,10.77,0,0,1-4,4.73,11,11,0,0,1-6,1.65,10.43,10.43,0,0,1-8.31-3.68q-3.18-3.67-3.17-9.94v-3a16.91,16.91,0,0,1,1.42-7.12,11,11,0,0,1,20-.17A16.64,16.64,0,0,1,218.21,77Zm-2.48-3.21q0-5.31-2.41-8.32A8.63,8.63,0,0,0,201.14,68a8.34,8.34,0,0,0-.94.94q-2.43,3-2.43,8.43v3.07c0,3.48.81,6.25,2.42,8.28a8,8,0,0,0,6.58,3.06,7.86,7.86,0,0,0,6.58-3q2.37-3,2.37-8.41Z" transform="translate(0.01 0)"/><path class="cls-1" d="M239,79.51H225.29v12H241.1v2.1H222.81V64.21H241v2.08H225.29v11.1H239Z" transform="translate(0.01 0)"/><path class="cls-1" d="M261.31,86.37a4.78,4.78,0,0,0-1.72-3.86c-1.14-1-3.24-1.85-6.28-2.71A22.06,22.06,0,0,1,246.65,77a6.77,6.77,0,0,1-.21-11.1,11.44,11.44,0,0,1,7.09-2.11,11.91,11.91,0,0,1,5.25,1.13,8.72,8.72,0,0,1,3.58,3.15,8.42,8.42,0,0,1,1.27,4.5h-2.51a6.2,6.2,0,0,0-2.05-4.85,8,8,0,0,0-5.54-1.83,8.7,8.7,0,0,0-5.37,1.51,4.69,4.69,0,0,0-2,3.93A4.45,4.45,0,0,0,248,75a16.59,16.59,0,0,0,5.75,2.5,27.26,27.26,0,0,1,6,2.24,8.63,8.63,0,0,1,3.07,2.78,6.91,6.91,0,0,1,1,3.81A6.63,6.63,0,0,1,261,91.9a11.81,11.81,0,0,1-7.33,2.1,14.1,14.1,0,0,1-5.7-1.11A8.59,8.59,0,0,1,244,89.78a7.93,7.93,0,0,1-1.35-4.58h2.49a5.86,5.86,0,0,0,2.32,4.91,9.84,9.84,0,0,0,6.17,1.79,9.16,9.16,0,0,0,5.52-1.51A4.76,4.76,0,0,0,261.31,86.37Z" transform="translate(0.01 0)"/><path class="cls-1" d="M55.29,0a55.29,55.29,0,1,0,55.28,55.3h0A55.28,55.28,0,0,0,55.3,0Zm0,99.13A43.85,43.85,0,1,1,99.13,55.27v0A43.84,43.84,0,0,1,55.29,99.13Z" transform="translate(0.01 0)"/><path class="cls-1" d="M48.92,59H34.6V73.7H25.72V36.87H50.37v6.85H34.6V52.2H48.92Z" transform="translate(0.01 0)"/><path class="cls-1" d="M84.85,73.7H76V58.29H62.94V73.67H54.06V36.87h8.88V51.49H76V36.87h8.83Z" transform="translate(0.01 0)"/></svg>