<svg id="Layer_1" data-name="Layer 1" xmlns="http://www.w3.org/2000/svg" viewBox="0 0 264 110.57"><title>logo_horizontal</title><path d="M182,96.1H168.57v13.79h-8.34V75.28h23.15v6.44H168.57v8H182Z" transform="translate(-38 -58.71)"/><path d="M202,103.43H190.51l-2,6.46H179.6l12.7-34.61h7.84l12.79,34.61h-9ZM192.51,97H200l-3.73-12Z" transform="translate(-38 -58.71)"/><path d="M215.45,109.89V75.28h12.43c4.46,0,7.84.82,10.17,2.45a9,9,0,0,1,2.24,11.69,7.23,7.23,0,0,1-3.64,2.81,7.23,7.23,0,0,1,4.16,2.66,7.73,7.73,0,0,1,1.46,4.75c0,3.4-1.08,5.94-3.23,7.65s-5.33,2.57-9.54,2.6Zm8.34-20.18h4.35a6.22,6.22,0,0,0,3.9-1,3.57,3.57,0,0,0,1.17-2.89A3.74,3.74,0,0,0,232,82.66a6.79,6.79,0,0,0-4.07-1h-4.09Zm0,5.47v8.29h5.47a5.19,5.19,0,0,0,3.47-1A3.62,3.62,0,0,0,234,99.53q0-4.34-4.31-4.35Z" transform="translate(-38 -58.71)"/><path d="M268.32,95.2H255.19v8.27h15.5v6.42H246.85V75.28h23.89v6.44H255.19V89h13.13Z" transform="translate(-38 -58.71)"/><path d="M287,97.65h-4.51v12.24h-8.35V75.28h13.62q6.17,0,9.63,2.73a9.23,9.23,0,0,1,3.47,7.72,11.27,11.27,0,0,1-1.46,6,10.29,10.29,0,0,1-4.58,3.85l7.23,14v.36h-8.94Zm-4.51-6.42h5.27A4.75,4.75,0,0,0,291.29,90a4.83,4.83,0,0,0,1.2-3.49A4.9,4.9,0,0,0,291.28,83a4.7,4.7,0,0,0-3.57-1.27h-5.27Z" transform="translate(-38 -58.71)"/><path d="M182.2,152.31h-2.5V138.22H162.9v14.09h-2.48v-29.4h2.48v13.21h16.8V122.91h2.5Z" transform="translate(-38 -58.71)"/><path d="M204.25,138.22H190.5v12h15.81v2.1H188v-29.4h18.19V125H190.5v11.1h13.75Z" transform="translate(-38 -58.71)"/><path d="M220.87,140.06h-8.54v12.25h-2.51v-29.4h9.55q4.71,0,7.35,2.28a8.69,8.69,0,0,1,1,11.36,8.41,8.41,0,0,1-4.44,3l7.35,12.52v.26H228ZM212.33,138h7.61a7.06,7.06,0,0,0,5-1.77,6.72,6.72,0,0,0-.08-9.45,8.21,8.21,0,0,0-5.55-1.71h-7Z" transform="translate(-38 -58.71)"/><path d="M256.2,139.21a17,17,0,0,1-1.4,7.12,10.75,10.75,0,0,1-4,4.73,11,11,0,0,1-6,1.65,10.41,10.41,0,0,1-8.31-3.68q-3.18-3.67-3.17-9.94v-3a16.89,16.89,0,0,1,1.42-7.12,11,11,0,0,1,20-.17,16.65,16.65,0,0,1,1.47,6.92ZM253.72,136q0-5.31-2.41-8.32a8.63,8.63,0,0,0-13.11,0q-2.43,3-2.43,8.43v3.07c0,3.48.81,6.25,2.42,8.28a8,8,0,0,0,6.58,3.06,7.87,7.87,0,0,0,6.58-3q2.37-3,2.37-8.41Z" transform="translate(-38 -58.71)"/><path d="M277,138.22H263.29v12H279.1v2.1H260.81v-29.4H279V125H263.29v11.1H277Z" transform="translate(-38 -58.71)"/><path d="M299.31,145.08a4.77,4.77,0,0,0-1.72-3.86c-1.14-.95-3.24-1.85-6.28-2.71a22.15,22.15,0,0,1-6.66-2.79,6.78,6.78,0,0,1-.21-11.1,11.44,11.44,0,0,1,7.09-2.11,11.87,11.87,0,0,1,5.25,1.13,8.67,8.67,0,0,1,3.58,3.15,8.36,8.36,0,0,1,1.27,4.5h-2.51a6.19,6.19,0,0,0-2.05-4.85,8,8,0,0,0-5.54-1.83,8.71,8.71,0,0,0-5.37,1.51,4.69,4.69,0,0,0-2,3.93,4.45,4.45,0,0,0,1.79,3.66,16.76,16.76,0,0,0,5.75,2.5,27.21,27.21,0,0,1,6,2.24,8.61,8.61,0,0,1,3.07,2.78,6.9,6.9,0,0,1,1,3.81,6.64,6.64,0,0,1-2.77,5.57,11.79,11.79,0,0,1-7.33,2.1,14.17,14.17,0,0,1-5.7-1.11,8.61,8.61,0,0,1-3.93-3.11,8,8,0,0,1-1.35-4.58h2.49a5.86,5.86,0,0,0,2.32,4.91,9.81,9.81,0,0,0,6.17,1.79,9.18,9.18,0,0,0,5.52-1.51A4.75,4.75,0,0,0,299.31,145.08Z" transform="translate(-38 -58.71)"/><path d="M93.29,58.71A55.29,55.29,0,1,0,148.57,114,55.28,55.28,0,0,0,93.29,58.71Zm0,99.13A43.85,43.85,0,1,1,137.13,114,43.84,43.84,0,0,1,93.29,157.84Z" transform="translate(-38 -58.71)"/><path d="M86.92,117.74H72.6v14.67H63.72V95.58H88.37v6.85H72.6v8.48H86.92Z" transform="translate(-38 -58.71)"/><path d="M122.85,132.41H114V117H100.94v15.38H92.06V95.58h8.88V110.2H114V95.58h8.83Z" transform="translate(-38 -58.71)"/></svg>