<svg id="Layer_1" data-name="Layer 1" xmlns="http://www.w3.org/2000/svg" viewBox="0 0 178.88 188.19"><title>series_icon</title><polygon points="86.26 80.66 91.08 77.04 115.86 104.2 111.03 107.82 86.26 80.66"/><polygon points="68.41 30.41 28.72 60.19 51.29 85.01 90.98 55.24 68.41 30.41"/><polygon points="102.51 68.59 97.69 72.21 122.47 99.37 127.29 95.76 102.51 68.59"/><polygon points="75.83 88.66 80.65 85.04 105.43 112.2 100.61 115.82 75.83 88.66"/><polygon points="63.43 97.93 63.6 97.78 68.24 94.3 92.97 121.5 88.15 125.11 63.43 97.93"/><path d="M100.11,3.86,87.5,13.5,80.86,6.05,9,60.05v33l89.86,99L187,123.21l.93-22.59ZM93,156.05v20.48L15,90.73V63.05L80.09,14.12l81.82,90.08L95.29,154.25Zm88.13-35.86L99,184.08v-25l12.15-9.22L120.31,160l61.1-48Zm-60.2,31.62-5.1-5.6L170.72,105l-79.07-87,7.81-6,83,91.35Z" transform="translate(-9 -3.86)"/></svg>