<svg id="Layer_1" data-name="Layer 1" xmlns="http://www.w3.org/2000/svg" viewBox="0 0 54 70.74"><title>stories_icon</title><path d="M23,16v-.1c0,.06,0,.11,0,.17A.15.15,0,0,1,23,16Z" transform="translate(-23 -14.63)"/><path d="M23.1,15.39a1.34,1.34,0,0,0-.1.49,1.94,1.94,0,0,1,0-.24s0,0,0-.06a.64.64,0,0,1,.06-.18Z" transform="translate(-23 -14.63)"/><path d="M23.35,15h0a.93.93,0,0,0-.16.18.76.76,0,0,1,.11-.14S23.33,15,23.35,15Z" transform="translate(-23 -14.63)"/><path d="M23.41,15l.13-.1a.8.8,0,0,0-.17.15v0h0S23.4,15,23.41,15Z" transform="translate(-23 -14.63)"/><path d="M24.5,14.66a.62.62,0,0,1,.23.07,1.44,1.44,0,0,0-1,0l.21-.07h0l.18,0h.07A1,1,0,0,1,24.5,14.66Z" transform="translate(-23 -14.63)"/><path d="M25.08,15a.1.1,0,0,1,.05,0h0S25.1,15,25.08,15Z" transform="translate(-23 -14.63)"/><path d="M74.92,15s0,0,0,.05h0A.1.1,0,0,1,74.92,15Z" transform="translate(-23 -14.63)"/><path d="M76.23,14.73a1.44,1.44,0,0,0-1,0,.62.62,0,0,1,.23-.07,1,1,0,0,1,.25,0h.07l.18,0h0Z" transform="translate(-23 -14.63)"/><path d="M76.68,15l-.13-.12.09.07,0,0Z" transform="translate(-23 -14.63)"/><path d="M77,15.57v0a0,0,0,0,0,0,0l-.06-.19s0,0,0,0A.58.58,0,0,1,77,15.57Z" transform="translate(-23 -14.63)"/><path d="M77,15.64v0s0-.06,0-.08Z" transform="translate(-23 -14.63)"/><path d="M77,15.77a.22.22,0,0,0,0-.08s0-.06,0-.08a0,0,0,0,0,0,0l-.06-.19h0a2,2,0,0,0-.11-.2.76.76,0,0,0-.11-.14l-.13-.12-.06,0a.92.92,0,0,0-.25-.15h0a1.44,1.44,0,0,0-1,0h0l-1.81.61C64.88,18.28,60.17,19.89,50,19.89s-14.93-1.62-23.55-4.57l-1.73-.59h0a1.44,1.44,0,0,0-1,0h0l-.2.11h0a.8.8,0,0,0-.17.15.93.93,0,0,0-.16.18,1.06,1.06,0,0,0-.11.21,1.34,1.34,0,0,0-.1.49c0,.06,0,.11,0,.17A.15.15,0,0,1,23,16V67.19a1.26,1.26,0,0,0,.56,1L49.33,85.16a1.24,1.24,0,0,0,1.38,0L76.43,68.24a1.27,1.27,0,0,0,.56-1V15.88A.41.41,0,0,0,77,15.77ZM25.13,15h0s0,0-.05-.05A.1.1,0,0,1,25.13,15ZM74.49,66.52,50,82.62,25.51,66.52V17.63l.16.05c8.88,3,13.76,4.71,24.36,4.71s15.42-1.66,24.24-4.68l.24-.08ZM74.87,15h0a.1.1,0,0,1,0,0S74.88,15,74.87,15Z" transform="translate(-23 -14.63)"/><path d="M23,15.88c0,.06,0,.11,0,.17A.15.15,0,0,1,23,16Z" transform="translate(-23 -14.63)"/><path d="M24.5,14.66a.62.62,0,0,1,.23.07,1.44,1.44,0,0,0-1,0l.21-.07h0a1.06,1.06,0,0,1,.5,0Z" transform="translate(-23 -14.63)"/><path d="M76.23,14.73a1.44,1.44,0,0,0-1,0,.62.62,0,0,1,.23-.07,1.06,1.06,0,0,1,.5,0h0Z" transform="translate(-23 -14.63)"/><path d="M74.92,15s0,0,0,.05h0A.1.1,0,0,1,74.92,15Z" transform="translate(-23 -14.63)"/><path d="M76.68,15l-.13-.12.09.07,0,0Z" transform="translate(-23 -14.63)"/><path d="M77,15.58l-.06-.19s0,0,0,0S77,15.53,77,15.58Z" transform="translate(-23 -14.63)"/><path d="M77,15.64v0s0-.06,0-.08Z" transform="translate(-23 -14.63)"/><path d="M23.09,15.4h0a1.34,1.34,0,0,0-.1.49,1.94,1.94,0,0,1,0-.24A2.17,2.17,0,0,1,23.09,15.4Z" transform="translate(-23 -14.63)"/><path d="M23.41,15l.13-.1a.8.8,0,0,0-.17.15.93.93,0,0,0-.16.18.76.76,0,0,1,.11-.14s0,0,0,0v0h0S23.4,15,23.41,15Z" transform="translate(-23 -14.63)"/><path d="M25.13,15h0s0,0-.05-.05A.1.1,0,0,1,25.13,15Z" transform="translate(-23 -14.63)"/><path d="M35,69a1.27,1.27,0,0,1-.78-.27,1.25,1.25,0,0,1-.31-1.58L45,46.8H37a1.26,1.26,0,0,1-1.14-.73,1.24,1.24,0,0,1,.2-1.34L49.93,28.84a1.26,1.26,0,0,1,1-.42H64.77a1.23,1.23,0,0,1,1.13.71,1.24,1.24,0,0,1-.16,1.33l-8.24,10h7.27a1.25,1.25,0,0,1,.83,2.19L35.81,68.68A1.2,1.2,0,0,1,35,69ZM39.73,44.3h7.38a1.23,1.23,0,0,1,1.07.61,1.25,1.25,0,0,1,0,1.24l-8.76,16,22-19.24h-6.6a1.25,1.25,0,0,1-1-2l8.24-10H51.44Z" transform="translate(-23 -14.63)"/><path d="M50.32,50.69Z" transform="translate(-23 -14.63)"/></svg>